<svg xmlns="http://www.w3.org/2000/svg" viewBox="0 0 242.34 131.09"><defs><style>.cls-1{fill:#feff31;}.cls-2{fill:#784ee2;}.cls-3{fill:#fdc158;}.cls-4{fill:#fc8455;}</style></defs><g id="Ebene_6" data-name="Ebene 6"><path class="cls-1" d="M208,30.06l4.51,3.4A10.27,10.27,0,0,0,210,32.23h0a.08.08,0,0,0,0,0,12.16,12.16,0,0,0-1.22-1.45A9.59,9.59,0,0,0,208,30.06Z"/><path class="cls-2" d="M30.51,96.51a10,10,0,0,1-1.42-1.19A11.12,11.12,0,0,1,26,87.88V38.19A10.52,10.52,0,0,1,36.54,27.66H201.32a10.43,10.43,0,0,1,6.47,2.23l.22.17a9.59,9.59,0,0,1,.75.68A12.16,12.16,0,0,1,210,32.19a.08.08,0,0,1,0,0h0a11.1,11.1,0,0,1,1.84,6V87.88A10.51,10.51,0,0,1,203,98.28a10.14,10.14,0,0,1-1.66.13H36.54a10.66,10.66,0,0,1-3.32-.53,11,11,0,0,1-2.52-1.24Z"/><path class="cls-1" d="M211.85,38.19a11.1,11.1,0,0,0-1.84-6,10.27,10.27,0,0,1,2.51,1.23l.11.08a10.48,10.48,0,0,1,4.62,8.71V91.94a10.32,10.32,0,0,1-.29,2.44h0l-5.5-3.61a10.62,10.62,0,0,0,.4-2.89Z"/><path class="cls-3" d="M217,94.38h0a10.53,10.53,0,0,1-7.67,7.77L203,98.28a10.57,10.57,0,0,0,8.47-7.51Z"/><path class="cls-4" d="M34.73,99.67a10,10,0,0,1-1.51-1.79,10.66,10.66,0,0,0,3.32.53H201.32a10.14,10.14,0,0,0,1.66-.13l6.31,3.87a10.48,10.48,0,0,1-2.58.32H41.93A10.35,10.35,0,0,1,34.73,99.67Z"/><path class="cls-4" d="M34.73,99.67l-4-3a11,11,0,0,0,2.52,1.24A10,10,0,0,0,34.73,99.67Z"/><path class="cls-1" d="M55.48,49.52A7.16,7.16,0,0,1,56,50.86l9.3,23.88.25.59H62.9c-.07-.08-.59-1.41-1.57-4a17.88,17.88,0,0,0-.86-2.06H47.88c-.06.08-.69,1.66-1.87,4.74a10.56,10.56,0,0,1-.55,1.32H42.85L52.92,49.52Zm-1.31,3.53L48.83,66.79H59.55L54.19,53.05Z"/><path class="cls-1" d="M79.41,49.52h.22a11.16,11.16,0,0,1,8.09,3.65,12.19,12.19,0,0,1,2,2.89c-1.41.73-2.14,1.1-2.18,1.1a13,13,0,0,0-1.2-1.84A8.84,8.84,0,0,0,79.57,52h-.1a8.81,8.81,0,0,0-6.94,3.56,11.12,11.12,0,0,0-2.29,6.79v.18a10.94,10.94,0,0,0,3,7.59,8.74,8.74,0,0,0,6.33,2.76,8.85,8.85,0,0,0,6.87-3.44,13.65,13.65,0,0,0,1.14-1.79l2.17,1.12a12.33,12.33,0,0,1-2.13,3.07,11.1,11.1,0,0,1-16.67-.54,13.66,13.66,0,0,1-3.16-8.77v-.18A13.35,13.35,0,0,1,71.48,53,11.08,11.08,0,0,1,79.41,49.52Z"/><path class="cls-1" d="M91.18,49.52h16.28l0,0V52l0,0h-6.9V75.33H98.09V52H91.18l0,0V49.54Z"/><path class="cls-1" d="M110.79,49.52h2.44V75.33h-2.47V49.54Z"/><path class="cls-1" d="M119.63,49.52l1.08,2.7,7.63,19.56h0l6.42-16.53L137,49.54l0,0h2.7l0,0h0l-10,25.5-.16.3h-2.49s-.56-1.31-1.57-3.93l-8.64-21.87v0Z"/><path class="cls-1" d="M153.63,49.52a6,6,0,0,1,.57,1.34l9.3,23.88.24.59h-2.68c-.07-.08-.59-1.41-1.57-4a20.39,20.39,0,0,0-.86-2.06H146q-.09.12-1.87,4.74a11.57,11.57,0,0,1-.54,1.32H141l10.07-25.81Zm-1.3,3.53L147,66.79h10.72l-5.36-13.74Z"/><path class="cls-1" d="M164.5,49.52h16.28l0,0V52l0,0h-6.9V75.33h-2.47V52H164.5l0,0V49.54Z"/><path class="cls-1" d="M184.11,49.52h12.83l0,0V52l0,0H186.57V61.2h8.3v2.46h-8.29v9.2h10.37l0,0v2.44H184.1V49.52Z"/></g></svg>