<svg xmlns="http://www.w3.org/2000/svg" xmlns:xlink="http://www.w3.org/1999/xlink" viewBox="0 0 825.2 893.67"><defs><style>.cls-1{isolation:isolate;}.cls-2,.cls-3,.cls-4{fill:none;stroke-linecap:round;stroke-linejoin:round;}.cls-2{stroke:#784ee2;stroke-width:5px;}.cls-3{stroke:#8ba7f0;stroke-width:4.5px;}.cls-4{stroke:#9efffe;stroke-width:4px;}.cls-5,.cls-6{fill:#f74099;}.cls-12,.cls-5,.cls-6,.cls-7{opacity:0.55;}.cls-6{mix-blend-mode:color-burn;}.cls-14,.cls-7{fill:#9efffe;}.cls-8{fill:#010155;}.cls-9{fill:#fc8456;}.cls-10{opacity:0.9;fill:url(#Unbenannter_Verlauf_6);}.cls-11{fill:#f43c68;}.cls-12{fill:#ffa8ed;}.cls-13{fill:#3d42ad;opacity:0.6;}.cls-14{opacity:0.7;}</style><radialGradient id="Unbenannter_Verlauf_6" cx="1364.97" cy="-403.54" fx="1058.971033080158" r="333.85" gradientTransform="translate(-350.72 -1073.99) rotate(90) scale(1 1.86)" gradientUnits="userSpaceOnUse"><stop offset="0.19" stop-color="#fff" stop-opacity="0"/><stop offset="0.28" stop-color="#e3f9f3" stop-opacity="0.16"/><stop offset="0.54" stop-color="#92e8cf" stop-opacity="0.61"/><stop offset="0.73" stop-color="#60ddb9" stop-opacity="0.89"/><stop offset="0.82" stop-color="#4cd9b0"/><stop offset="0.95" stop-color="#fff"/></radialGradient></defs><g class="cls-1"><g id="_1" data-name="1"><polygon class="cls-2" points="783.1 606.84 403.18 826.19 26 608.43 405.93 389.08 783.1 606.84"/><polygon class="cls-3" points="693.19 608.67 402.07 776.75 113.06 609.88 404.18 441.81 693.19 608.67"/><polygon class="cls-4" points="603.27 610.5 400.96 727.3 200.12 611.34 402.43 494.54 603.27 610.5"/><path class="cls-5" d="M499.32,249.94v46h0c-.09-7.25-2.64-14.5-7.66-21.31-4.69-6.36-11.54-12.32-20.54-17.52a115,115,0,0,0-28.38-11.35v-46a114.64,114.64,0,0,1,28.38,11.36c18.61,10.75,28,24.8,28.2,38.83Z"/><path class="cls-6" d="M508.23,450.38V396.74h0c-.2-16.37-11.18-32.76-32.9-45.3-43.65-25.2-114.17-25.35-157.5-.33-21.77,12.57-32.54,29.09-32.32,45.63h0v53.15c0-16.37,10.78-32.69,32.33-45.14,43.33-25,113.85-24.87,157.5.33,21.72,12.54,32.7,28.93,32.9,45.3Z"/><path class="cls-7" d="M408.38,231.24v49.39c-28.88-1.38-58.5,4.28-80.49,17-9.78,5.65-17.15,12.17-22.11,19.13-5.11,7.16-7.66,14.79-7.66,22.43V290.24h0c-.21-15.23,9.72-30.44,29.76-42C349.88,235.52,379.5,229.87,408.38,231.24Z"/><ellipse class="cls-8" cx="399.64" cy="610.58" rx="126.81" ry="73.21" transform="translate(-3.83 2.53) rotate(-0.36)"/><path class="cls-8" d="M485.91,581.75v10.84h0c-.14,12.7-8.65,25.4-25.48,35.12a101.06,101.06,0,0,1-22.87,9.49,99.58,99.58,0,0,0,22.07-9.2c14.84-8.57,23-19.5,23-30.76s-8-21.88-22.56-30.28c-15.78-9.11-37.3-14.13-60-14.16-22.92,0-44.38,5.15-60.46,14.42-14.85,8.58-23,19.51-23,30.77s8,21.88,22.56,30.28a96.7,96.7,0,0,0,21.69,9A99.57,99.57,0,0,1,338.4,628c-16.7-9.65-25-22.3-25-35V582.45c4.23-7.89,11.76-15.33,22.61-21.59a111,111,0,0,1,30-11.53A150.66,150.66,0,0,1,400,545.45h.26c23,0,46,5,63.47,15.15C474.37,566.72,481.75,574,485.91,581.75Z"/><path class="cls-9" d="M365.83,400.12c5.45,2.62-19.82,163,14.6,154.3,9.89-4.49,5-113,9.94-116.76,1.94-.05,12.06,111.69,31.76,124.27,40.11,17.84-4.67-159.2,2.54-159.64C424.66,402.29,389.65,423.58,365.83,400.12Z"/><path class="cls-9" d="M368.77,567.23c2.17,8.63-41.26,31.94-16.84,34.38,3.92,1.67,31.08-20,34.41-21.75l-.48-18.29C381.09,562.73,366.48,557.79,368.77,567.23Z"/><path class="cls-9" d="M424.11,580.76c1.81,6.92-5,43.9,5.06,47.28,24.11,8.82,14.09-38.17,10.1-48.72Z"/><path class="cls-9" d="M372.08,552.07c-.3,12.95-3.14,14.31,11.55,12.87l-3.49-20.57C380.33,544.05,370.67,554,372.08,552.07Z"/><polygon class="cls-9" points="424.18 558.33 427.9 584.43 437.89 583.23 434.4 555.92 424.18 558.33"/><path class="cls-9" d="M371.48,321.5c70.9-32,53.16,39.35,55.52,80.79-11.69,20.37-56,17-64.66-2.36C359.3,375.41,369.78,347.22,371.48,321.5Z"/><path class="cls-9" d="M376.53,277.77c-.48,7.88.6,25.94,10.9,30.86,6.09,1.38-1.57,11.93,5.71,13.41,12.05,3.36,9.17-10.31,13.41-14.14,7.2-8.31,4.72-15.43,4-29.14C408,261.33,381.65,260.75,376.53,277.77Z"/><path class="cls-9" d="M486.07,300.66c-2.68,2.76-8.75,8.6-12.74,9.09l-23.83,37c-6.6-6.06-27.1-23.12-34.34-29-3.68,2.3-4.81,15.2-5.6,18.91,54.54,40.51,36.52,37.23,68.21-17.57,4.24-.44,5.07-1.36,6.7-5.23l-2.4-5.31c1.21-1.56,4.54-5.73,5.63-7.32Z"/><path class="cls-9" d="M301.61,323.25l-2.54,1.39q4.29,4.49,8.59,8.95c-.73,2.53-1.45,5.05-2.17,7.58,1.12,1.16,2.25,2.32,3.37,3.49l4.81.72,34.17,34.71,9.86-1.69q6.57-18,13.12-36l8.45-24.09-11.46,3.82-7.1,4.33-12.15,32.85Z"/><path class="cls-10" d="M485.91,594V88.31h0c.41-13-7.9-26-25-35.91-33.58-19.38-88.2-19.27-122,.26-17.08,9.85-25.57,22.78-25.48,35.65h0V594.25h0c-.16,12.82,8.17,25.63,25,35.37,33.58,19.39,88.21,19.27,122-.25,16.84-9.72,25.34-22.42,25.49-35.12h0V594Z"/><path class="cls-11" d="M485.92,581.91v10.84h0c-.15,12.7-8.65,25.4-25.48,35.12a101.44,101.44,0,0,1-22.87,9.49q-1.23.36-2.49.69l-1.45.38c-.64.17-1.29.33-2,.48a133.43,133.43,0,0,1-16.08,2.76c-1.36.15-2.73.29-4.12.4s-2.62.2-3.94.28q-4.23.23-8.54.23c-1.37,0-2.73,0-4.09-.05-2.07-.06-4.13-.16-6.16-.29l-2.05-.16c-.68-.05-1.36-.11-2-.18A131.46,131.46,0,0,1,362.89,638c-.34-.09-.67-.17-1-.28l-1-.27a100.69,100.69,0,0,1-22.48-9.33c-16.7-9.66-25-22.31-25-35V582.62c-9.6,17.88-2.24,38.1,22.15,52.18C353,644.89,376,649.94,399,649.94c23.23,0,46.53-5.14,64.31-15.42C488,620.25,495.59,599.83,485.92,581.91Z"/><path class="cls-12" d="M327,335.36v49.38c-19.46-11.51-29.09-26.5-28.89-41.5h0V294.3c0,7.64,2.55,15.28,7.66,22.44C310.59,323.49,317.67,329.82,327,335.36Z"/><path class="cls-13" d="M508.23,387.32V441h0c-.2,16.37-11.18,32.76-32.9,45.3-43.65,25.2-114.17,25.35-157.5.33C296.06,474,285.29,457.5,285.51,441h0V387.81c0,16.36,10.78,32.69,32.33,45.14,43.33,25,113.85,24.87,157.5-.33,21.72-12.54,32.7-28.93,32.9-45.3Z"/><path class="cls-14" d="M499.32,246.22v46h0c-.17,14-9.59,28.09-28.2,38.83-17.66,10.2-40.46,15.62-63.52,16.24v-46c23.06-.62,45.86-6,63.52-16.23,9-5.19,15.85-11.16,20.54-17.52,5-6.8,7.57-14.06,7.66-21.31Z"/></g></g></svg>