<svg xmlns="http://www.w3.org/2000/svg" xmlns:xlink="http://www.w3.org/1999/xlink" viewBox="0 0 217.98 191.21"><defs><style>.cls-1{opacity:0.9;fill:url(#Unbenannter_Verlauf_51);}</style><linearGradient id="Unbenannter_Verlauf_51" x1="20.74" y1="95.6" x2="197.24" y2="95.6" gradientUnits="userSpaceOnUse"><stop offset="0" stop-color="#fff" stop-opacity="0"/><stop offset="0.1" stop-color="#e3f9f3" stop-opacity="0.16"/><stop offset="0.39" stop-color="#92e8cf" stop-opacity="0.61"/><stop offset="0.59" stop-color="#60ddb9" stop-opacity="0.89"/><stop offset="0.69" stop-color="#4cd9b0"/></linearGradient></defs><g id="Pfeil"><path class="cls-1" d="M120.37,35.44h0A9.3,9.3,0,0,0,122,47l42.62,39H30a9.45,9.45,0,0,0-9.24,9.7h0A9.44,9.44,0,0,0,30,105.24H164.63l-42.62,39a9.3,9.3,0,0,0-1.64,11.52h0a8.42,8.42,0,0,0,13,2l61.14-56a8.53,8.53,0,0,0,0-12.45l-61.14-56A8.42,8.42,0,0,0,120.37,35.44Z"/></g></svg>