<?xml version="1.0" encoding="utf-8"?>
<!-- Generator: Adobe Illustrator 25.2.0, SVG Export Plug-In . SVG Version: 6.00 Build 0)  -->
<svg version="1.1" id="Capa_1" xmlns="http://www.w3.org/2000/svg" xmlns:xlink="http://www.w3.org/1999/xlink" x="0px" y="0px"
	 viewBox="0 0 512 512" style="enable-background:new 0 0 512 512;" xml:space="preserve">
<style type="text/css">
	.st0{fill:#FFA8ED;}
	.st1{fill:#4CD9B0;}
	.st2{fill:#6262BC;}
	.st3{fill:#36369E;}
</style>
<g>
	<path class="st0" d="M451,512H346v-30h105c8.3,0,15-7.7,15-16s-6.7-15-15-15H241v-30h210c24.8,0,45,20.2,45,45S475.8,512,451,512z"
		/>
	<path class="st1" d="M465.5,235.3l-15.3-15.5l14.7-15.3c-0.7-7.3-1.8-14.4-3.1-21.5L442,165.4l11.3-13.5
		c-3.7-10.6-8.1-20.9-13.3-30.8l-23.4-13.3l4.9-15.9c-7.5-10.1-15.8-19.6-24.9-28.4L363.4,64l2.2-25.4c-30-20-65.1-33.9-102.9-37.6
		l-15.3,14.7l-6.3-6l-9.7-9.3c-10.6,0.5-21,2.5-31.2,4.4l-14.4,18.8l-17.5-10.4c-10.7,3.7-21.1,8.1-31.1,13.2L120,52.3l-13.1-6.7
		c-10.6,7.9-20.5,16.6-29.5,26.2L76.7,107l-25.1-2.1c-1.8,2.8-3.5,5.6-5.2,8.5L37.9,151l-16.9,28.2C17.7,194.3,16,209.9,16,226
		c0,59.2,23,112.9,60.4,153l14.6-1.9l15.3,28.8c10.1,7.6,20.8,14.4,32.1,20.2l13.3-9.4l19.2,23.1c10.3,3.4,21,5.9,32,7.8l13.8-13.6
		l18.6,16.8c1.9,0,3.7,0.3,5.6,0.3c44.2,0,85.4-13,120.2-35l2.9-13.9l31.1-12.5c9.3-8.8,17.9-18.4,25.6-28.7l-4.2-17l23.9-13.9
		c5.3-10.1,9.7-20.6,13.4-31.6l-10.8-16.2l19-15.3C464,256.6,465.1,246,465.5,235.3z"/>
	<path class="st2" d="M364,402.1l31.1-12.5c9.3-8.8,17.9-18.4,25.6-28.7l-4.2-17l23.9-13.9c5.3-10.1,9.7-20.6,13.4-31.6l-10.8-16.2
		l19-15.3c1.9-10.3,3-20.9,3.4-31.6l-15.3-15.5l14.7-15.3c-0.7-7.3-1.8-14.4-3.1-21.5L442,165.5l11.3-13.5
		c-3.7-10.6-8.1-20.9-13.3-30.8l-23.4-13.3l4.9-15.9c-7.5-10.1-15.8-19.6-24.9-28.4L363.4,64l2.2-25.4c-30-20-65.1-33.9-102.9-37.6
		l-15.3,14.7l-6.3-6V451c44.2,0,85.4-13,120.2-35L364,402.1z"/>
	<g>
		<path class="st3" d="M241,125.4c44.7-32.8,97.8-54.9,155.5-61.8c-9.6-9.2-19.9-17.6-31-25c-37.2,7.4-73.1,20.3-106.1,38.8
			c-2-10.3-3.4-20.8-3.4-31.5c0-15.3,2.7-30.8,6.6-44.9C255.5,0.4,248.3,0,241,0c-3.3,0-6.5,0.3-9.7,0.5C228,14.8,226,30.7,226,46
			c0,16.4,2.6,32.5,6.6,48.2c-9,6.1-17.7,12.7-26.1,19.6C199.6,92,196,69.3,196,46c0-14,1.6-27.7,4.1-41.1
			c-10.9,2-21.5,4.8-31.8,8.4C166.9,24,166,34.9,166,46c0,30.9,5.7,60.9,16.5,89.4c-15.3,15.2-19.7,21.4-22.2,24.4
			c-18.4-42.1-26-87.4-23.1-133.3c-10.7,5.6-20.7,12-30.3,19.1c0,48.9,10.5,96.8,32.8,141.2c-6.6,9.5-12.8,19.2-18.4,29.2
			c-25.4-44.5-40-93.5-43.9-144.1c-9.6,10.2-18.2,21.2-25.8,33c8,50.5,25.7,99.1,54,143c-5.9,13.7-11.1,27.6-15.3,41.9
			C59.8,235.9,45,175.5,46.4,113.4c-11.7,20.2-20.5,42.3-25.5,65.8c8.5,54,28.4,105.6,60,152c-2.6,15.7-4.1,31.7-4.6,47.8
			c9.2,9.8,19.2,18.8,29.9,26.9C101.2,290.4,155.6,188,241,125.4L241,125.4z"/>
		<path class="st3" d="M241,204.7c50.1-52.3,120.9-84.6,199-83.5c-5.4-10.3-11.7-19.9-18.6-29.2c-68.5,3.3-131.3,29.7-180.4,71.7
			C176.9,218.4,136,299.6,136,391c0,11.8,1.1,23.5,2.5,35.1c10.4,5.3,21.3,9.9,32.5,13.6c-2.9-16-5-32.3-5-48.8
			C166,318.3,194.7,253,241,204.7L241,204.7z"/>
		<path class="st3" d="M421,241c15.2,0,30.1-2.3,44.5-5.7c0.1-3.1,0.5-6.1,0.5-9.3c0-7.3-0.4-14.5-1.1-21.6
			c-14.1,4.1-28.8,6.6-43.9,6.6c-22.8,0-45-4.9-65.6-13.9c24.8-10.4,52-16.1,80.6-16.1c8.7,0,17.3,0.9,25.8,2
			c-2.1-10.7-5-21-8.5-31.1c-5.7-0.4-11.5-0.9-17.3-0.9c-80.3,0-151.4,39.8-195,100.6C212.8,291,196,339,196,391
			c0,19.2,2.5,38.1,7,56.5c10.6,1.8,21.4,2.9,32.5,3.2c-5.8-19.3-9.4-39.3-9.4-59.7c0-8.1,0.6-16.2,1.5-24.1c4.4,2.7,9,4.8,13.5,7.3
			c37.7,20.7,78.1,34.9,120.2,41.7c12.2-7.7,23.5-16.5,33.9-26.4c-54.6-4.2-107.1-21.4-154.1-50.3c-2.4-1.5-4.9-2.6-7.2-4.1
			c1.9-7,4.6-13.7,7.2-20.5c1.1-2.8,1.8-5.7,3-8.4c52.6,35.9,113.6,54.6,176.7,54.6c7.3-9.8,14-20.1,19.7-31
			c-65.1,4.1-128.5-13.1-182-50.5c5.3-8.4,11.1-16.5,17.5-24.1C318.7,285.2,368.5,301,421,301c11.1,0,22-1.2,32.9-2.6
			c3.5-10.2,6.3-20.7,8.2-31.5c-13.5,2.5-27.1,4.1-41.1,4.1c-44.5,0-86.5-13.4-123.2-37.7c8-7,16.5-13.4,25.4-19.1
			C352.9,231.5,386.4,241,421,241z"/>
	</g>
	<g>
		<path class="st0" d="M244,306.3c52.6,35.9,113.6,54.6,176.7,54.6c7.3-9.8,14-20.1,19.7-31c-65.1,4.1-128.5-13.1-182-50.5
			c5.3-8.4,11.1-16.5,17.5-24.1C318.7,285.2,368.5,301,421,301c11.1,0,22-1.2,32.9-2.6c3.5-10.2,6.3-20.7,8.2-31.5
			c-13.5,2.5-27.1,4.1-41.1,4.1c-44.5,0-86.5-13.4-123.2-37.7c8-7,16.5-13.4,25.4-19.1c29.7,17.3,63.2,26.9,97.8,26.9
			c15.2,0,30.1-2.3,44.5-5.7c0.1-3.1,0.5-6.1,0.5-9.3c0-7.3-0.4-14.5-1.1-21.6c-14.1,4.1-28.8,6.6-43.9,6.6
			c-22.8,0-45-4.9-65.6-13.9c24.8-10.4,52-16.1,80.6-16.1c8.7,0,17.3,0.9,25.8,2c-2.1-10.7-5-21-8.5-31.1
			c-5.7-0.4-11.5-0.9-17.3-0.9c-80.3,0-151.4,39.8-195,100.6v63.1C242.1,312,242.8,309,244,306.3L244,306.3z"/>
		<path class="st0" d="M395.1,389.6c-54.6-4.2-107.1-21.4-154.1-50.3v34.9c37.7,20.7,78.1,34.9,120.2,41.7
			C373.3,408.3,384.7,399.5,395.1,389.6L395.1,389.6z"/>
		<path class="st0" d="M365.5,38.6c-37.2,7.4-73.1,20.3-106.1,38.8c-2-10.3-3.4-20.8-3.4-31.5c0-15.3,2.7-30.8,6.6-44.9
			C255.5,0.4,248.3,0,241,0v125.4c44.7-32.8,97.8-54.9,155.5-61.8C386.9,54.4,376.6,46,365.5,38.6z"/>
		<path class="st0" d="M440,121.2c-5.4-10.3-11.7-19.9-18.6-29.2c-68.5,3.3-131.3,29.7-180.4,71.7v41
			C291.1,152.4,361.9,120.1,440,121.2z"/>
	</g>
</g>
</svg>
